<?xml version="1.0" encoding="UTF-8" standalone="no"?>
<!--
Copyright (c) 2025
@author Oliver Merkel, Merkel(dot)Oliver(at)web(dot)de.
All rights reserved.

This graphics is licensed under a
http://creativecommons.org/licenses/by-nc-sa/4.0/deed.en_US
Creative Commons Attribution-NonCommercial-ShareAlike 4.0 International License.
-->
<!DOCTYPE svg PUBLIC "-//W3C//DTD SVG 1.1//EN"
    "http://www.w3.org/Graphics/SVG/1.1/DTD/svg11.dtd">
<svg version="1.1"
  xmlns:dc="http://purl.org/dc/elements/1.1/"
  xmlns:cc="http://creativecommons.org/ns#"
  xmlns:rdf="http://www.w3.org/1999/02/22-rdf-syntax-ns#"
  xmlns="http://www.w3.org/2000/svg"
  width="32" height="20"
  viewBox="0 0 60 39">
  <title>Country Flag zh-CN</title>
  <metadata
     id="metadata7">
    <rdf:RDF>
      <cc:Work
         rdf:about="">
        <dc:format>image/svg+xml</dc:format>
        <dc:type
           rdf:resource="http://purl.org/dc/dcmitype/StillImage" />
        <dc:title>Country Flag zh-CN</dc:title>
        <dc:date>2025-05-22</dc:date>
        <dc:creator>
          <cc:Agent>
            <dc:title>Oliver Merkel, Merkel(dot)Oliver (at)web(dot) de</dc:title>
          </cc:Agent>
        </dc:creator>
        <dc:rights>
          <cc:Agent>
            <dc:title>Oliver Merkel, Merkel(dot)Oliver (at)web(dot) de</dc:title>
          </cc:Agent>
        </dc:rights>
        <dc:publisher>
          <cc:Agent>
            <dc:title>Oliver Merkel, Merkel(dot)Oliver (at)web(dot) de</dc:title>
          </cc:Agent>
        </dc:publisher>
        <dc:language>en-GB</dc:language>
        <cc:license
           rdf:resource="http://creativecommons.org/licenses/by-nc-sa/4.0/" />
      </cc:Work>
      <cc:License
         rdf:about="http://creativecommons.org/licenses/by-nc-sa/4.0/">
        <cc:permits
           rdf:resource="http://creativecommons.org/ns#Reproduction" />
        <cc:permits
           rdf:resource="http://creativecommons.org/ns#Distribution" />
        <cc:requires
           rdf:resource="http://creativecommons.org/ns#Notice" />
        <cc:requires
           rdf:resource="http://creativecommons.org/ns#Attribution" />
        <cc:prohibits
           rdf:resource="http://creativecommons.org/ns#CommercialUse" />
        <cc:permits
           rdf:resource="http://creativecommons.org/ns#DerivativeWorks" />
        <cc:requires
           rdf:resource="http://creativecommons.org/ns#ShareAlike" />
      </cc:License>
    </rdf:RDF>
  </metadata>
  <rect width="60" height="39" y="0" x="0" fill="#D23"/>
  <path
     fill="#FF0"
     d="M 11.72,8.75 10.12,3.66 8.52,8.75 H 3.34 l 4.19,3.15 -1.6,5.09 4.19,-3.15 4.19,3.15 -1.6,-5.1 4.19,-3.15 z" />
  <path
     fill="#FF0"
     d="m 26.09,9.23 0.24,1.77 0.8,-1.58 1.7,0.3 -1.2,-1.28 0.8,-1.58 -1.55,0.78 -1.2,-1.28 0.25,1.77 -1.55,0.78 z" />
  <path
     fill="#FF0"
     d="M 21.64,4.52 22.53,6.05 22.67,4.28 24.36,3.88 22.77,3.18 22.92,1.4 21.79,2.75 20.2,2.05 21.09,3.58 19.95,4.92 Z" />
  <path
     fill="#FF0"
     d="m 27.62,16.2 1.36,-1.1 -1.73,0.06 -0.59,-1.68 -0.47,1.71 -1.72,0.06 1.43,1 -0.47,1.71 1.36,-1.1 1.43,1 z" />
  <path
     fill="#FF0"
     d="m 22.75,20.35 0.08,-1.78 -1.08,1.39 -1.61,-0.63 0.95,1.5 -1.08,1.4 1.66,-0.47 0.95,1.49 0.08,-1.78 1.66,-0.47 z" />
</svg>
